<?xml version="1.0" standalone="no"?>
<!DOCTYPE svg PUBLIC "-//W3C//DTD SVG 1.0//EN" "http://www.w3.org/TR/2001/REC-SVG-20010904/DTD/svg10.dtd">
<svg xmlns="http://www.w3.org/2000/svg" xmlns:xlink="http://www.w3.org/1999/xlink" id="body_1" width="542" height="357">

<defs>
    <linearGradient transform="matrix(1 0 0 1 0 0)"  id="1" x1="0" y1="50" x2="100" y2="50">
        <stop stop-color="#183866" offset="0%"/>
        <stop stop-color="#1A7FC1" offset="100%"/>
    </linearGradient>
    <linearGradient transform="matrix(1 0 0 1 0 0)"  id="216" x1="14.169" y1="-41.335" x2="114.168" y2="-41.335">
        <stop stop-color="#183866" offset="0%"/>
        <stop stop-color="#1A7FC1" offset="100%"/>
    </linearGradient>
    <linearGradient transform="matrix(1 0 0 1 0 0)"  id="452" x1="-0.04" y1="49.993" x2="99.996" y2="49.993">
        <stop stop-color="#ECC4D7" offset="0%"/>
        <stop stop-color="#F2EAC9" offset="100%"/>
    </linearGradient>
    <linearGradient transform="matrix(1 0 0 1 0 0)"  id="684" x1="99.032" y1="-163.287" x2="199.03" y2="-163.287">
        <stop stop-color="#ECC4D7" offset="0%"/>
        <stop stop-color="#F2EAC9" offset="100%"/>
    </linearGradient>
    <linearGradient transform="matrix(1 0 0 1 0 0)"  id="921" x1="124.306" y1="-84.564" x2="224.306" y2="-84.564">
        <stop stop-color="#ECC4D7" offset="0%"/>
        <stop stop-color="#F2EAC9" offset="100%"/>
    </linearGradient>
    <linearGradient transform="matrix(1 0 0 1 0 0)"  id="1158" x1="128.89" y1="100.36" x2="24.06" y2="153.095">
        <stop stop-color="#362958" offset="0%"/>
        <stop stop-color="#34313D" offset="100%"/>
    </linearGradient>
</defs>

<g transform="matrix(0.73942703 0 0 0.7406639 0 0)">
	<g>
        <path d="M583.08 92.214C 562.107 69.828995 545.872 43.107 520.805 24.838997C 481.431 -3.9150028 424.76398 -6.7190037 378.72498 11.344996C 332.68497 29.407997 296.81998 65.81899 273.18097 107.048C 260.74597 128.73999 250.97897 152.402 232.75797 170.12799C 217.35497 185.10399 197.10997 194.659 177.91496 205.066C 146.96696 221.799 117.162964 242.01799 97.134964 269.761C 77.10896 297.504 68.15497 333.94098 80.95696 365.20697C 89.589966 386.30396 106.97896 403.08997 124.79296 418.28796C 145.75696 436.15695 168.28896 452.88898 194.29297 463.53595C 226.84796 476.78195 262.98697 479.62994 298.42697 480.97794C 361.25497 483.35794 424.18396 481.57895 486.74597 475.65494C 537.97595 470.81094 590.75696 462.54193 633.62 435.77493C 693.66296 398.29092 724.62 329.61194 731.58997 262.26495C 734.42596 235.32895 733.70795 207.33694 722.626 182.34496C 696.12195 122.56496 624.609 136.54695 583.079 92.21396L583.079 92.21396L583.08 92.214z" stroke="none" fill="#EFF1F7" fill-rule="nonzero" />
        <path d="M178.317 202.334C 178.317 202.334 161.717 199.387 157.067 211.003C 152.417 222.619 157.067 262.73602 157.067 262.73602L157.067 262.73602L219 307L178.317 202.334z" stroke="none" fill="#3F3D56" fill-rule="nonzero" />
        <path d="M256.202 379.727L231.647 386.735C 228.07901 387.745 224.337 385.783 223.27501 382.349C 222.22801 378.911 224.26201 375.303 227.82501 374.28L227.82501 374.28L252.34702 367.266C 255.91202 366.25598 259.65402 368.21298 260.71902 371.645C 261.77704 375.078 259.75903 378.69 256.20203 379.727L256.20203 379.727L256.202 379.727z" stroke="none" fill="#2BD0D0" fill-rule="nonzero" />
        <path d="M266 395C 266 398.0376 264.9261 400.6303 262.77817 402.77817C 260.6303 404.9261 258.03757 406.00003 255 406C 251.96243 406.00003 249.36972 404.9261 247.22183 402.77817C 245.07394 400.6303 244 398.0376 244 395C 244 391.96246 245.07394 389.36972 247.22183 387.22183C 249.36972 385.07394 251.96243 384 255 384C 258.03757 384 260.6303 385.07394 262.77817 387.22183C 264.9261 389.36972 266 391.96246 266 395C 266 395.12805 265.99777 395.25598 265.9933 395.38388" stroke="none" fill="#25233A" fill-rule="nonzero" />
        <path d="M259 397.5C 259 399.0188 258.46304 400.3152 257.3891 401.3891C 256.31516 402.46307 255.01878 403.00003 253.5 403C 251.98123 403.00003 250.68488 402.46307 249.61092 401.3891C 248.53699 400.3152 248.00002 399.0188 248 397.5C 248.00002 395.98123 248.53699 394.68488 249.61092 393.6109C 250.68488 392.537 251.98123 392 253.5 392C 255.01878 392 256.31516 392.537 257.3891 393.6109C 258.46304 394.68488 259 395.98123 259 397.5C 259 397.56403 258.9989 397.62802 258.99664 397.69196" stroke="none" fill="#3F3D56" fill-rule="nonzero" />
        <path d="M221 384C 221.00002 387.03757 219.92607 389.6303 217.77817 391.77817C 215.6303 393.9261 213.03757 395 210 395C 206.96243 395 204.36972 393.9261 202.22183 391.77817C 200.07394 389.6303 199 387.03757 199 384C 199 380.96246 200.07394 378.36972 202.22183 376.22183C 204.36972 374.07394 206.96243 373 210 373C 213.03757 373 215.6303 374.07394 217.77817 376.22183C 219.92607 378.36972 221.00002 380.96246 221 384C 221.00002 384.12802 220.99777 384.25598 220.9933 384.38388" stroke="none" fill="#25233A" fill-rule="nonzero" />
        <path d="M214 384.5C 215.24466 382.34418 217.78214 381.29312 220.18665 381.9374C 222.59116 382.5817 224.26314 384.76068 224.26314 387.25C 224.26314 389.73932 222.59116 391.9183 220.18665 392.5626C 217.78214 393.20688 215.24466 392.15582 214 390L214 384.5L214 390L214 384.5z" stroke="none" fill="url(#1)" />
        <path d="M218 399C 218.00002 402.03757 216.92607 404.6303 214.77817 406.77817C 212.6303 408.9261 210.03757 410 207 410C 203.96243 410 201.36972 408.9261 199.22183 406.77817C 197.07394 404.6303 196 402.03757 196 399C 196 395.96246 197.07394 393.36975 199.22183 391.22183C 201.36972 389.07397 203.96243 388.00003 207 388C 210.03757 388.00003 212.6303 389.07397 214.77817 391.22183C 216.92607 393.36975 218.00002 395.96246 218 399C 218.00002 399.12802 217.99777 399.25598 217.9933 399.38388" stroke="none" fill="#25233A" fill-rule="nonzero" />
        <path d="M216 399.5C 217.24466 397.34418 219.78214 396.29312 222.18665 396.9374C 224.59116 397.5817 226.26314 399.76068 226.26314 402.25C 226.26314 404.73932 224.59116 406.9183 222.18665 407.5626C 219.78214 408.20688 217.24466 407.15582 216 405L216 399.5L216 405L216 399.5z" stroke="none" fill="#3F3D56" fill-rule="nonzero" />
        <path d="M257.085 390.874L206.29799 380.828C 202.72398 380.111 200.41399 376.698 201.12999 373.19202C 201.86198 369.69202 205.34 367.428 208.915 368.126L208.915 368.126L259.702 378.153C 263.276 378.87003 265.586 382.28302 264.87 385.79C 264.147 389.297 260.666 391.571 257.085 390.87402L257.085 390.87402L257.085 390.874z" stroke="none" fill="#2BD0D0" fill-rule="nonzero" />
        <path d="M226 310L240 310L240 369C 240 372.866 236.867 376 233.003 376L233.003 376L233.003 317L226 317L226 310z" stroke="none" fill="#2BD0D0" fill-rule="nonzero" />
        <path d="M231.187 386.708L206.65 393.733C 203.082 394.747 199.336 392.784 198.275 389.345C 197.228 385.905 199.262 382.295 202.823 381.271L202.823 381.271L227.36 374.266C 230.924 373.25598 234.664 375.214 235.728 378.647C 236.767 382.082 234.73799 385.681 231.187 386.707L231.187 386.707L231.187 386.708z" stroke="none" fill="#2BD0D0" fill-rule="nonzero" />
        <path d="M236 386.26L232.875 386.811L236 386.26L232.875 386.811L234.18 386.583L236 386.26L232.875 386.811L234.18 386.583L236.368 386.84302L236 386.26z" stroke="none" fill="none" />
        <path d="M261 372.738L239 372.65L261 372.738L239 372.65L251.654 368.727L261 372.738L239 372.65L251.654 368.727C 253.154 369.594 254.263 371.051 254.737 372.775C 254.901 373.375 254.986 373.99698 254.989 374.621L254.989 374.621L261 372.738z" stroke="none" fill="none" />
        <path d="M225.22 371.103L225.22 311L231.163 311L231.163 374.07C 231.10399 374.38 231.123 374.69702 231.22 375C 230.53 374.96 229.835 374.96 229.144 375L229.144 375L229.569 374.9C 229.831 374.86 228.629 372.809 228.286 371.61398L228.286 371.61398L225.22 371.103z" stroke="none" fill="none" />
        <path d="M262.289 389.8C 261.319 390.323 260.228 390.597 259.119 390.59598L259.119 390.59598L236.71199 386.18997L234.84499 385.82697L259.119 390.59598L236.71199 386.18997L234.84499 385.82697L233.73499 386.14395L210.70999 392.80994C 207.19598 393.81693 203.508 391.86694 202.463 388.44794C 204.45999 390.25293 207.492 390.42093 209.686 388.84894C 212.49701 386.95294 223.688 384.10593 230.02701 382.59195C 233.02301 381.89395 235.315 379.54196 235.87502 376.59195C 235.89102 376.41895 235.91702 376.24594 235.95502 376.07495C 237.01102 377.18796 238.95201 378.43695 242.46002 379.49796C 251.10002 382.08694 265.127 383.80194 265.127 383.80194C 265.127 383.80194 267.65903 386.22195 265.752 388.87494L265.752 388.87494L262.289 389.8z" stroke="none" fill="none" />
        <path d="M264 388C 285.39127 387.64273 305.34824 398.72473 316.35327 417.07147C 327.3583 435.41824 327.7395 458.24246 317.35327 476.94647C 306.96704 495.6505 287.39127 507.39273 266 507.75L264 388L266 507.75L264 388z" stroke="none" fill="none" />
        <path d="M226.3 370.559C 226.09 370.598 225.875 370.651 225.659 370.71L225.659 370.71L206.088 380C 202.817 379.187 200.662 376.135 201.04399 372.854C 201.42499 369.574 204.22499 367.073 207.59999 367L207.59999 367L224.95 370.427L226.3 370.559z" stroke="none" fill="none" />
        <path d="M259 89.407C 259 89.407 258.724 68.602 241.925 70.396996C 225.125 72.189995 226.414 65.301994 219.238 66.058C 212.063 66.815 203.72801 73.844 206.121 82.526C 208.516 91.208 199.789 93.149 194.057 99.736C 188.324 106.323 195.406 111.712 205.063 118.152C 214.72 124.592 204.463 122.925 210.188 133.107C 215.914 143.288 235.295 130.282 235.295 130.282L235.295 130.282L259 89.407z" stroke="none" fill="#503164" fill-rule="nonzero" />
        <path d="M122.664 434.601L134.394 435L134.394 341.255C 134.394 341.255 134.984 317.014 157.846 314.582C 180.707 312.151 388.042 282.116 388.042 282.116C 388.042 282.116 396.25998 281.246 400.99298 297.017C 405.72598 312.788 410.33298 374.80402 410.33298 374.80402L410.33298 374.80402L473.97296 383.381C 473.97296 383.381 475.65295 273.831 452.67096 267.786C 429.68997 261.741 129.14896 292.54602 129.14896 292.54602C 129.14896 292.54602 106.858955 408.898 122.663956 434.601L122.663956 434.601L122.664 434.601z" stroke="none" fill="#2BD0D0" fill-rule="nonzero" />
        <path d="M122.664 434.601L134.394 435L134.394 341.255C 134.394 341.255 134.984 317.014 157.846 314.582C 180.707 312.151 388.042 282.116 388.042 282.116C 388.042 282.116 396.25998 281.246 400.99298 297.017C 405.72598 312.788 410.33298 374.80402 410.33298 374.80402L410.33298 374.80402L473.97296 383.381C 473.97296 383.381 475.65295 273.831 452.67096 267.786C 429.68997 261.741 129.14896 292.54602 129.14896 292.54602C 129.14896 292.54602 106.858955 408.898 122.663956 434.601L122.663956 434.601L122.664 434.601z" stroke="none" fill="none" />
        <path d="M62 303.784C 62 303.784 67.744 272.02798 108.144 263.705L108.144 263.705L393.32703 231.06198C 393.32703 231.06198 421.32303 229.90198 434.13104 237.64899C 446.93906 245.39499 465.21906 251.81699 472.71405 286.87198C 480.20905 321.92798 482.00006 381.81396 482.00006 381.81396L482.00006 381.81396L474.91006 382.91397C 474.91006 382.91397 464.56207 274.47397 453.59805 267.60797C 442.63504 260.74298 146.19604 302.86298 146.19604 302.86298C 146.19604 302.86298 125.63504 306.951 123.84405 337.395C 122.05405 367.83798 123.84405 434 123.84405 434L123.84405 434L62 409.057L62 303.784z" stroke="none" fill="#2BD0D0" fill-rule="nonzero" />
        <path d="M355.425 243.844C 340.663 241.944 325.78098 240.568 310.90598 241.124C 299.72598 241.55699 288.61996 243.09 277.53397 244.61699L277.53397 244.61699L179.75897 258.12C 178.09897 258.35 176.20897 258.723 175.37897 260.164C 173.78697 262.91602 177.52896 265.628 180.56097 266.676C 213.07097 277.932 247.80397 289.332 281.26898 281.306C 296.56897 277.637 310.77997 270.018 326.29898 267.371C 341.817 264.724 357.74698 267.161 373.232 264.665C 387.789 262.32 401.649 255.656 416.404 255.591C 420.929 255.591 425.587 256.168 429.879 254.752C 434.172 253.337 437.967 249.013 436.779 244.702C 422.926 244.224 407.375 241.69499 393.787 244.44C 380.33798 247.15201 368.89297 243.84401 355.425 243.84401L355.425 243.84401L355.425 243.844z" stroke="none" fill="url(#216)" />
        <path d="M267 259.38L267.57 261.49402C 267.57 261.49402 284.45102 271.66702 284.345 271.99503C 284.239 272.32303 354.36902 255.75502 354.36902 255.75502L354.36902 255.75502L356 251L267 259.38z" stroke="none" fill="#2BD0D0" fill-rule="nonzero" />
        <path d="M267 259.38L267.57 261.49402C 267.57 261.49402 284.45102 271.66702 284.345 271.99503C 284.239 272.32303 354.36902 255.75502 354.36902 255.75502L354.36902 255.75502L356 251L267 259.38z" stroke="none" fill="none" />
        <path d="M268 259.364L330.107 246L356 251.054L285.442 268L268 259.364z" stroke="none" fill="#2BD0D0" fill-rule="nonzero" />
        <path d="M268 259.364L330.107 246L356 251.054L285.442 268L268 259.364z" stroke="none" fill="none" />
        <path d="M247.832 270.484L262.289 270.996C 262.289 270.996 265.961 271.224 266.909 268.279C 267.859 265.33398 261.01898 259.119 260.287 259.00198C 259.554 258.88397 240.527 264.222 243.26999 269.55798L243.26999 269.55798L247.83199 270.48398L247.832 270.484z" stroke="none" fill="#2BD0D0" fill-rule="nonzero" />
        <path d="M247.832 270.484L262.289 270.996C 262.289 270.996 265.961 271.224 266.909 268.279C 267.859 265.33398 261.01898 259.119 260.287 259.00198C 259.554 258.88397 240.527 264.222 243.26999 269.55798L243.26999 269.55798L247.83199 270.48398L247.832 270.484z" stroke="none" fill="none" />
        <path d="M79 416.056L71.942 437.733C 51.469 445.084 34.062 437.733 34.062 437.733L34.062 437.733L29 415C 29 415 54.535 423.56 79 416.056z" stroke="none" fill="#2BD0D0" fill-rule="nonzero" />
        <path d="M79 416.056L71.942 437.733C 51.469 445.084 34.062 437.733 34.062 437.733L34.062 437.733L29 415C 29 415 54.535 423.56 79 416.056z" stroke="none" fill="none" />
        <path d="M87 396L84.716 412.943L78.93 415.951C 54.281998 423.371 28.515 414.913 28.515 414.913L28.515 414.913L24.071999 411.63L22 396L87 396z" stroke="none" fill="#2BD0D0" fill-rule="nonzero" />
        <path d="M87 396L84.716 412.943L78.93 415.951C 54.281998 423.371 28.515 414.913 28.515 414.913L28.515 414.913L24.071999 411.63L22 396L87 396z" stroke="none" fill="none" />
        <path d="M22 395C 22 391.68628 36.550743 389 54.5 389C 72.44926 389 87 391.68628 87 395C 87 398.31372 72.44926 401 54.5 401C 36.550743 401 22 398.31372 22 395" stroke="none" fill="#2BD0D0" fill-rule="nonzero" />
        <path d="M22 395C 22 391.68628 36.550743 389 54.5 389C 72.44926 389 87 391.68628 87 395C 87 398.31372 72.44926 401 54.5 401C 36.550743 401 22 398.31372 22 395" stroke="none" fill="none" />
        <path d="M39.641 265.03C 36.459 263.51498 33.038 262.372 30.285 260.16C 24.737999 255.66 23.332 247.912 21.595001 240.962C 19.859001 234.011 16.498001 226.369 9.651001 224.375C 7.0890007 223.638 4.084001 223.93 2.136001 225.765C 0.08300114 227.698 -0.33399892 230.875 0.22800112 233.679C 0.7890011 236.483 2.156001 238.995 3.213001 241.653C 2.348001 247.04199 0.2810011 252.504 1.608001 257.787C 3.860001 266.75098 15.078001 272.007 15.3880005 281.244C 15.6 287.477 10.503 293.245 11.658001 299.379C 12.510001 303.917 16.663002 307.45898 16.888 312.07098C 17.138 317.301 12.226 321.72598 12.464001 326.956C 12.701001 332.186 17.891 335.681 21.279 339.79498C 21.456999 342.58597 21.099998 345.477 22.005 348.12198C 22.664999 350.055 23.984999 351.697 25.008999 353.438C 26.138998 355.318 26.989998 357.352 28.349998 359.093C 29.399998 352.14297 28.481998 345.05298 28.772999 338.02798C 29.346998 324.41898 34.463997 310.70398 31.189 297.49298C 29.987999 292.649 27.676998 288.05 27.266998 283.08C 26.903997 278.63998 28.078999 274.24197 28.897999 269.86298C 30.588 260.81897 30.561998 251.46898 29.867998 242.32498C 29.320997 235.06898 24.249998 231.72598 17.918 228.70898L17.918 228.70898L39.641 265.03z" stroke="none" fill="#2BD0D0" fill-rule="nonzero" />
        <path d="M59.752 300.767C 59.698997 306.829 61.082 313.097 59.14 318.852C 57.67 323.214 54.438 326.78598 52.769 331.07498C 48.919003 340.97397 54.099003 352.07498 53.042 362.645C 52.602 366.999 51.106 371.18198 50.162 375.45798C 55.850914 375.92004 61.422626 377.32947 66.647 379.628C 71.921005 370.998 82.16901 365.18198 84.077 355.26898C 85.367004 348.55698 82.36201 341.745 82.575005 334.91397C 85.05501 331.68698 88.414 329.19098 90.72201 325.84396C 96.268005 317.77795 94.53901 306.99597 92.89001 297.34998C 91.240005 287.70297 90.283005 276.602 96.80001 269.29297C 98.86201 266.98297 101.54801 265.24896 103.41701 262.77997C 107.58001 257.27597 106.52901 248.79697 101.687004 243.87796C 96.847 238.95796 89.052 237.59796 82.469 239.76196C 79.144005 244.47597 80.474 250.91597 81.884 256.51895C 83.114006 261.38596 84.105 267.00195 82.423004 271.90897C 81.166 275.55997 77.98 277.53897 75.273 280.08096L75.273 280.08096L59.752 300.767z" stroke="none" fill="#2BD0D0" fill-rule="nonzero" />
        <path d="M53.062 354.522C 52.124 361.115 50.77 367.76102 50.492 374.37302L50.492 374.37302L50.492 375.03802C 59.724457 374.95245 68.30124 379.79883 72.99158 387.7516C 77.6819 395.70435 77.77319 405.55527 73.23107 413.5936C 68.68894 421.63193 60.203457 426.63644 50.971 426.72202L50.492 374.37302L50.492 375.03802C 51.007 427.61502 51.232002 428.49002 51.631 429.28802C 51.599 429.56702 51.559002 429.83902 51.52 430.118C 50.2 428.377 49.307 426.34302 48.178 424.463C 47.121002 422.71503 45.833 421.073 45.173 419.14603C 44.268 416.48703 44.624 413.61002 44.446 410.81903C 41.057 406.73203 35.859 403.30304 35.628 397.98602C 35.397 392.66904 40.303997 388.33002 40.052998 383.09903C 39.829 378.48703 35.673996 374.94504 34.822998 370.40604C 33.665997 364.27103 38.784996 358.50305 38.553997 352.26904C 38.243996 343.03104 27.021997 337.77405 24.768997 328.80905C 23.448997 323.52505 25.508997 318.06204 26.373997 312.67307C 25.316998 310.01508 23.949997 307.51007 23.387997 304.69806C 22.826996 301.88806 23.242996 298.71707 25.296997 296.77606C 27.278997 294.94205 30.250998 294.65005 32.813995 295.38705C 39.669994 297.38104 43.017998 305.05106 44.761993 312.00204C 46.505993 318.95404 47.905994 326.69604 53.453995 331.20206C 56.195995 333.42905 59.629993 334.55804 62.813995 336.07407C 69.15399 339.09106 74.227 342.43405 74.769 349.62405C 75.429 358.76904 75.489 368.12006 73.798996 377.16504C 72.979 381.54504 71.81699 385.94504 72.16699 390.38403C 72.51699 394.82404 74.438995 399.02405 75.69399 403.33005C 75.83299 403.81503 75.97099 404.30704 76.09 404.79904C 77.755 411.63803 77.21999 418.55603 76.222 425.53406L76.222 425.53406L53.062 354.522z" stroke="none" fill="#30C59B" fill-rule="nonzero" />
        <path d="M49.718 394C 49.288 388.64 49.502 383.22 50.355 377.953C 50.378 377.798 50.406998 377.643 50.435 377.488C 50.264 383.834 50.809002 390.232 50.22 396.488L50.22 396.488L49.718 394z" stroke="none" fill="none" />
        <path d="M107.393 251.014C 105.521996 253.48401 102.831 255.216 100.766 257.527C 94.239 264.83002 95.198 275.937 96.85 285.584C 98.501 295.23 100.233 306.01202 94.678 314.079C 92.368004 317.39902 89.004 319.92102 86.519 323.148C 86.307 329.979 89.31699 336.79102 88.024994 343.50302C 86.11399 353.41602 75.84999 359.24503 70.56799 367.86304C 84.558624 343.5734 115.32684 334.81042 140.01567 348.08395C 164.70451 361.35745 174.36453 391.85593 161.81952 416.9228C 149.27454 441.98962 119.07195 452.53842 93.64856 440.7327C 68.22516 428.92694 56.79665 399.04617 67.853 373.28802L67.853 373.28802L70.355995 375.79102L70.355995 375.79102L76.588 375.79102C 75.989 370.285 76.287994 364.71802 77.474 359.307C 77.506996 359.147 77.547 358.988 77.587 358.829C 78.533 354.71902 79.932 350.689 80.358 346.493C 81.364 339.522 81.903 332.61102 80.205 325.825C 80.085 325.33502 79.945 324.84302 79.805 324.358C 79.932 323.933 80.078 323.508 80.245 323.09C 81.917 318.801 85.154 315.23 86.625 310.867C 88.564 305.111 87.185 298.844 87.238 292.782C 87.325 282.312 92.061 272.20203 99.667 265.057C 102.377 262.515 105.568 260.53702 106.826996 256.885C 108.51199 251.97801 107.493 246.36201 106.286995 241.49501C 104.868996 235.89201 103.522995 229.45201 106.87399 224.738C 108.538994 222.401 111.163994 220.88101 113.89399 219.97801C 120.46099 217.81302 128.301 219.17401 133.14299 224.09401C 137.98499 229.014 139.01099 237.52402 134.84099 242.996L134.84099 242.996L107.393 251.014z" stroke="none" fill="#30C59B" fill-rule="nonzero" />
        <path d="M225.573 146.146C 225.573 146.146 197.756 150.446 184.889 181.123C 172.022 211.8 178.71301 249.806 178.938 253.15C 179.16301 256.494 218.366 271 229.573 271C 240.781 271 243.11499 259.771 243.11499 259.771L243.11499 259.771L223.312 251.338L283.482 244.38899L294.28598 244.38899L288.335 254.42099C 288.335 254.42099 300.078 255.65099 307.927 255.93199C 315.775 256.21298 321.105 240.69199 321.984 232.97299C 322.864 225.256 287.31702 157.51498 282.00702 153.50299C 276.69702 149.48999 262.29 139.68599 225.57303 146.146L225.57303 146.146L225.573 146.146z" stroke="none" fill="#2BD0D0" fill-rule="nonzero" />
        <path d="M258.392 88.776C 258.392 88.776 263.424 91.606 262.972 100.761C 262.51898 109.916 259.68198 123.693 256.81897 127.261C 253.95497 130.83101 243.93896 132.229 243.93896 132.229C 243.93896 132.229 249.40297 145.20601 253.46896 148.55501C 257.53497 151.904 249.38297 164.242 241.45396 160.194C 233.52597 156.145 224.33397 145.978 224.33397 145.978C 224.33397 145.978 230.94597 133.733 228.70998 127.287994C 226.47498 120.842995 217.93797 98.224 224.33397 92.04599C 230.72997 85.86599 244.51997 77.01099 258.39197 88.77599L258.39197 88.77599L258.392 88.776z" stroke="none" fill="url(#452)" />
        <path d="M214.334 190L210 244.055L223.238 251L234 249.122L220.572 232.618L214.334 190zM284 187C 284 187 301.909 229.077 293.97 244L293.97 244L287.854 242.84L284 187z" stroke="none" fill="#FFFFFF" fill-rule="nonzero" fill-opacity="0.24705882" />
        <path d="M235.522 258.045C 235.522 258.045 228.756 263.82 231.776 268.312C 234.796 272.803 238.401 272.67502 241.407 270.66702C 244.413 268.65802 250.318 263.89102 257.353 266.079C 264.388 268.267 266.097 269.659 266.097 269.659C 266.097 269.659 269.80197 267.343 268.84097 265.02C 267.87897 262.697 260.52097 255.16998 258.38898 254.19499C 256.257 253.21999 247.40598 256.216 247.40598 256.216C 247.40598 256.216 240.90297 254.45801 235.52197 258.046L235.52197 258.046L235.522 258.045z" stroke="none" fill="url(#684)" />
        <path d="M295.191 245.598C 295.191 245.598 288.806 246.35701 287.19302 250.55501C 285.58002 254.753 285.00003 255.26501 285.00003 255.26501C 285.00003 255.26501 288.60602 255.95502 290.10602 254.001C 291.60602 252.047 293.165 252.86801 293.165 252.86801L293.165 252.86801L292.71802 255.37502C 292.71802 255.37502 302.51602 256.85202 306.94202 255.26501C 311.367 253.67601 313.26703 251.81201 313.26703 251.81201L313.26703 251.81201L315.00003 247.572C 315.00003 247.572 310.82004 244.542 307.66803 244.072C 304.51602 243.602 295.19104 245.598 295.19104 245.598L295.19104 245.598L295.191 245.598z" stroke="none" fill="url(#921)" />
        <path d="M328.893 290C 328.893 290 350.827 306.687 348.877 329.259C 346.928 351.831 344.06403 385.346 344.06403 385.346C 344.06403 385.346 335.21802 389.068 329.35703 385.346C 323.49503 381.62402 319.946 330.696 317.04202 325.833C 314.13803 320.969 296.66702 299.043 278.00003 297.154L278.00003 297.154L328.893 290z" stroke="none" fill="#25233A" fill-rule="nonzero" />
        <path d="M219 306.058C 219 306.058 229.444 315.953 248.062 319.06003C 266.681 322.16702 275.359 324.76004 281.049 340.66504C 286.739 356.57004 292.19702 390.80203 293.984 394.62805C 295.77002 398.45404 303.366 396.50204 303.366 396.50204C 303.366 396.50204 307.662 391.60706 307.662 364.38806C 307.662 326.44208 310.317 318.66406 300.749 309.13205C 291.181 299.59906 282.477 297.00006 282.477 297.00006L282.477 297.00006L219 306.058z" stroke="none" fill="#3F3D56" fill-rule="nonzero" />
        <path d="M294 396L295.82 410.197L299.228 410.197C 299.228 410.197 321.176 411.384 321.86398 410.87198C 322.55197 410.35898 320.80698 399.62897 312.49197 399.93198C 304.17596 400.23596 303.63098 397.90897 303.63098 397.90897L303.63098 397.90897L294 396zM331 386.156L334.518 400L372.95502 394.788C 372.95502 394.788 374.308 385.695 362.13202 386.597C 358.91803 386.831 356.52402 389.06198 352.661 389.08197C 348.798 389.10196 345.09802 387.53897 343.15002 384.99997L343.15002 384.99997L331 386.156z" stroke="none" fill="#25233A" fill-rule="nonzero" />
        <path d="M461.804 212.337L319.56097 219.99101C 316.12097 220.17201 313.18497 217.52101 312.99997 214.06502L312.99997 214.06502L312.99997 112.473C 313.00296 108.372 316.26697 105.025 320.34796 104.938L320.34796 104.938L462.00897 102.00101C 462.0438 98.242775 465.1064 95.21774 468.86478 95.22934C 472.62317 95.240944 475.66705 98.28483 475.67865 102.043205C 475.69025 105.80158 472.66522 108.864204 468.90698 108.89901L320.34796 104.938L462.00897 102.00101L468.90698 108.89901L468.90698 204.87001C 468.90198 208.92601 465.74298 212.272 461.71097 212.49101L461.71097 212.49101L461.804 212.337z" stroke="none" fill="#2BD0D0" fill-rule="nonzero" />
        <path d="M469.804 212.337L327.554 219.992C 324.11398 220.169 321.18198 217.514 321 214.058L321 214.058L321 112.473C 320.996 108.371 324.26 105.020996 328.342 104.938L328.342 104.938L470.022 102.00101C 473.799 101.93101 476.92 104.94401 477 108.739006L477 108.739006L477 204.716C 476.995 208.77301 473.836 212.119 469.804 212.337z" stroke="none" fill="#2BD0D0" fill-rule="nonzero" />
        <path d="M469.804 212.337L327.554 219.992C 324.11398 220.169 321.18198 217.514 321 214.058L321 214.058L321 112.473C 320.996 108.371 324.26 105.020996 328.342 104.938L328.342 104.938L470.022 102.00101C 473.799 101.93101 476.92 104.94401 477 108.739006L477 108.739006L477 204.716C 476.995 208.77301 473.836 212.119 469.804 212.337z" stroke="none" fill="url(#1158)" />
        <path d="M427.773 251.138L391.478 255C 391.478 255 380.425 252.77 381.023 251.138C 381.622 249.505 393.17902 247.933 393.17902 247.933L393.17902 247.933L393.17902 182.129C 393.079 181.983 391.558 180.045 387.39 178.81C 386.583 178.571 385.76202 178.38 384.931 178.23999C 382.452 176.95999 385.191 174.73 389.038 174.62999L389.038 174.62999L416.951 174.62999C 416.951 174.62999 427.51898 177.603 428.03098 192.441C 428.54196 207.28 428.03098 251.65599 428.03098 251.65599L428.03098 251.65599L427.773 251.138z" stroke="none" fill="#3A3054" fill-rule="nonzero" />
        <path d="M398 251.277L391.322 255C 391.322 255 380.434 252.77 381.02298 251.137C 381.61298 249.50499 393.01797 247.93199 393.01797 247.93199L393.01797 247.93199L393.01797 182.12299C 392.87997 181.971 391.21097 180.22499 387.31497 178.805C 384.873 177.525 387.56998 175.295 391.36096 175.19499C 394.58896 175.64 400.94595 179.22299 401.35895 181.26799C 401.77094 183.312 402.45193 252.47198 402.45193 252.47198L402.45193 252.47198L398 251.277z" stroke="none" fill="#51466B" fill-rule="nonzero" />
        <path d="M263 389C 262.119 390.001 261.71 390.37 262.23 389.547C 262.5 389.388 262.75702 389.205 263 389z" stroke="none" fill="none" />
	</g>
</g>
</svg>