<?xml version="1.0" standalone="no"?>
<!DOCTYPE svg PUBLIC "-//W3C//DTD SVG 1.0//EN" "http://www.w3.org/TR/2001/REC-SVG-20010904/DTD/svg10.dtd">
<svg xmlns="http://www.w3.org/2000/svg" xmlns:xlink="http://www.w3.org/1999/xlink" id="body_1" width="696" height="458">

<defs>
    <linearGradient transform="matrix(1 0 0 1 0 0)"  id="1" x1="0" y1="50" x2="100" y2="50">
        <stop stop-color="#183866" offset="0%"/>
        <stop stop-color="#1A7FC1" offset="100%"/>
    </linearGradient>
    <linearGradient transform="matrix(1 0 0 1 0 0)"  id="216" x1="14.169" y1="-41.335" x2="114.168" y2="-41.335">
        <stop stop-color="#183866" offset="0%"/>
        <stop stop-color="#1A7FC1" offset="100%"/>
    </linearGradient>
    <linearGradient transform="matrix(1 0 0 1 0 0)"  id="452" x1="-0.04" y1="49.993" x2="99.996" y2="49.993">
        <stop stop-color="#ECC4D7" offset="0%"/>
        <stop stop-color="#F2EAC9" offset="100%"/>
    </linearGradient>
    <linearGradient transform="matrix(1 0 0 1 0 0)"  id="684" x1="99.032" y1="-163.287" x2="199.03" y2="-163.287">
        <stop stop-color="#ECC4D7" offset="0%"/>
        <stop stop-color="#F2EAC9" offset="100%"/>
    </linearGradient>
    <linearGradient transform="matrix(1 0 0 1 0 0)"  id="921" x1="124.306" y1="-84.564" x2="224.306" y2="-84.564">
        <stop stop-color="#ECC4D7" offset="0%"/>
        <stop stop-color="#F2EAC9" offset="100%"/>
    </linearGradient>
    <linearGradient transform="matrix(1 0 0 1 0 0)"  id="1158" x1="128.89" y1="100.36" x2="24.06" y2="153.095">
        <stop stop-color="#362958" offset="0%"/>
        <stop stop-color="#34313D" offset="100%"/>
    </linearGradient>
</defs>

<g transform="matrix(0.9495225 0 0 0.9502075 0 0)">
	<g transform="matrix(1 0 0 1 0 0)">
        <path d="M583.08 92.214C 562.107 69.828995 545.872 43.107 520.805 24.838997C 481.431 -3.9150028 424.76398 -6.7190037 378.72498 11.344996C 332.68597 29.408997 296.81998 65.81899 273.18097 107.048C 260.74597 128.73999 250.97897 152.402 232.75797 170.12799C 217.35497 185.10399 197.10997 194.659 177.91496 205.066C 146.96696 221.799 117.162964 242.01799 97.134964 269.761C 77.106964 297.50397 68.15497 333.94098 80.95696 365.20697C 89.589966 386.30396 106.97896 403.08997 124.79296 418.28796C 145.75696 436.15695 168.28896 452.88898 194.29297 463.53595C 226.84796 476.78195 262.98697 479.62994 298.42697 480.97794C 361.25497 483.35794 424.18396 481.57895 486.74597 475.65494C 537.97595 470.81094 590.75696 462.54193 633.62 435.77493C 693.66296 398.29092 724.62 329.61194 731.58997 262.26495C 734.42596 235.32895 733.70795 207.33694 722.626 182.34496C 696.12195 122.56496 624.609 136.54695 583.079 92.21396L583.079 92.21396L583.08 92.214z" stroke="none" fill="#EFF1F7" fill-rule="nonzero" />
        <path d="M178.317 202.334C 178.317 202.334 161.717 199.387 157.067 211.003C 152.417 222.61902 157.067 262.73602 157.067 262.73602L157.067 262.73602L219 307L178.317 202.334z" stroke="none" fill="#3F3D56" fill-rule="nonzero" />
        <path d="M256.202 379.727L231.647 386.735C 228.07901 387.745 224.337 385.783 223.27501 382.349C 222.22801 378.911 224.26201 375.303 227.82501 374.28L227.82501 374.28L252.34702 367.266C 255.91202 366.25598 259.65402 368.21298 260.71902 371.645C 261.77704 375.078 259.75903 378.69 256.20203 379.727L256.20203 379.727L256.202 379.727z" stroke="none" fill="#2BD0D0" fill-rule="nonzero" />
        <path d="M266 395C 266 398.0376 264.9261 400.6303 262.77817 402.77817C 260.6303 404.9261 258.03757 406.00003 255 406C 251.96243 406.00003 249.36972 404.9261 247.22183 402.77817C 245.07394 400.6303 244 398.0376 244 395C 244 391.96246 245.07394 389.36972 247.22183 387.22183C 249.36972 385.07394 251.96243 384 255 384C 258.03757 384 260.6303 385.07394 262.77817 387.22183C 264.9261 389.36972 266 391.96246 266 395C 266 395.12805 265.99777 395.25598 265.9933 395.38388" stroke="none" fill="#25233A" fill-rule="nonzero" />
        <path d="M259 397.5C 259 399.0188 258.46304 400.3152 257.3891 401.3891C 256.31516 402.46307 255.01878 403.00003 253.5 403C 251.98123 403.00003 250.68488 402.46307 249.61092 401.3891C 248.53699 400.3152 248.00002 399.0188 248 397.5C 248.00002 395.98123 248.53699 394.68488 249.61092 393.6109C 250.68488 392.537 251.98123 392 253.5 392C 255.01878 392 256.31516 392.537 257.3891 393.6109C 258.46304 394.68488 259 395.98123 259 397.5C 259 397.56403 258.9989 397.62802 258.99664 397.69196" stroke="none" fill="#3F3D56" fill-rule="nonzero" />
        <path d="M221 384C 221.00002 387.03757 219.92607 389.6303 217.77817 391.77817C 215.6303 393.9261 213.03757 395 210 395C 206.96243 395 204.36972 393.9261 202.22183 391.77817C 200.07394 389.6303 199 387.03757 199 384C 199 380.96246 200.07394 378.36972 202.22183 376.22183C 204.36972 374.07394 206.96243 373 210 373C 213.03757 373 215.6303 374.07394 217.77817 376.22183C 219.92607 378.36972 221.00002 380.96246 221 384C 221.00002 384.12802 220.99777 384.25598 220.9933 384.38388" stroke="none" fill="#25233A" fill-rule="nonzero" />
        <path d="M214 384.5C 215.24466 382.34418 217.78214 381.29312 220.18665 381.9374C 222.59116 382.5817 224.26314 384.76068 224.26314 387.25C 224.26314 389.73932 222.59116 391.9183 220.18665 392.5626C 217.78214 393.20688 215.24466 392.15582 214 390L214 390L214 384.5L214 390L214 384.5z" stroke="none" fill="url(#1)" />
        <path d="M218 399C 218.00002 402.03757 216.92607 404.6303 214.77817 406.77817C 212.6303 408.9261 210.03757 410 207 410C 203.96243 410 201.36972 408.9261 199.22183 406.77817C 197.07394 404.6303 196 402.03757 196 399C 196 395.96246 197.07394 393.36975 199.22183 391.22183C 201.36972 389.07397 203.96243 388.00003 207 388C 210.03757 388.00003 212.6303 389.07397 214.77817 391.22183C 216.92607 393.36975 218.00002 395.96246 218 399C 218.00002 399.12802 217.99777 399.25598 217.9933 399.38388" stroke="none" fill="#25233A" fill-rule="nonzero" />
        <path d="M216 399.5C 217.24466 397.34418 219.78214 396.29312 222.18665 396.9374C 224.59116 397.5817 226.26314 399.76068 226.26314 402.25C 226.26314 404.73932 224.59116 406.9183 222.18665 407.5626C 219.78214 408.20688 217.24466 407.15582 216 405L216 405L216 399.5L216 405L216 399.5z" stroke="none" fill="#3F3D56" fill-rule="nonzero" />
		<g>
            <path d="M257.085 390.874L206.29799 380.828C 202.72398 380.111 200.41399 376.698 201.12999 373.19202C 201.86198 369.69202 205.34 367.428 208.915 368.126L208.915 368.126L259.702 378.153C 263.276 378.87003 265.586 382.28302 264.87 385.79C 264.147 389.297 260.666 391.571 257.085 390.87402L257.085 390.87402L257.085 390.874z" stroke="none" fill="#2BD0D0" fill-rule="nonzero" />
            <path d="M226 310L240 310L240 369C 239.99998 372.8648 236.86781 375.99835 233.003 376C 229.13834 375.99835 226.00644 372.86465 226.007 369L226.007 369L226.007 310L226 310z" stroke="none" fill="#2BD0D0" fill-rule="nonzero" />
            <path d="M231.187 386.708L206.65 393.733C 203.082 394.747 199.336 392.784 198.275 389.345C 197.228 385.905 199.262 382.295 202.823 381.271L202.823 381.271L227.36 374.266C 230.924 373.25598 234.664 375.214 235.728 378.647C 236.767 382.082 234.73799 385.681 231.187 386.707L231.187 386.707L231.187 386.708z" stroke="none" fill="#2BD0D0" fill-rule="nonzero" />
		</g>
        <path d="M236 386.26L232.875 386.811L236 386.26L232.875 386.811L234.18 386.583L236 386.26L232.875 386.811L234.18 386.583L236.368 386.84302L236 386.26z" stroke="none" fill="none" />
        <path d="M261 372.738L239 372.65L261 372.738L239 372.65L251.654 368.727L261 372.738L239 372.65L251.654 368.727C 253.154 369.594 254.263 371.051 254.737 372.775C 254.901 373.375 254.986 373.99698 254.989 374.621L254.989 374.621L261 372.738z" stroke="none" fill="none" />
        <path d="M225.22 371.103L225.22 311L231.163 311L231.163 374.07C 231.10399 374.38 231.123 374.69702 231.22 375C 230.53 374.96 229.835 374.96 229.144 375L229.144 375L229.569 374.9C 229.831 374.86 228.629 372.809 228.286 371.61398L228.286 371.61398L225.22 371.103z" stroke="none" fill="none" />
        <path d="M262.289 389.8C 261.3147 390.32413 260.2253 390.59766 259.119 390.59598C 258.67255 390.59476 258.2272 390.55124 257.789 390.46597L257.789 390.46597L235.382 386.05997L233.515 385.69696C 232.87451 386.17612 232.15155 386.5337 231.382 386.75195L231.382 386.75195L230.272 387.06894L207.24701 393.73492C 203.733 394.7419 200.04501 392.79193 199.00002 389.37292C 200.99701 391.17792 204.02902 391.34592 206.22302 389.77393C 209.03403 387.87793 220.22502 385.0309 226.56403 383.51694C 229.56003 382.81894 231.85202 380.46695 232.41203 377.51694C 232.42776 377.34308 232.45448 377.1704 232.49203 376.99994C 233.54803 378.11295 235.48903 379.36194 238.99704 380.42294C 247.63704 383.01193 261.66403 384.72693 261.66403 384.72693C 261.66403 384.72693 264.19604 387.14694 262.28903 389.79993L262.28903 389.79993L262.289 389.8z" stroke="none" fill="none" />
        <path d="M264 388C 285.39127 387.64273 305.34824 398.72473 316.35327 417.07147C 327.3583 435.41824 327.7395 458.24246 317.35327 476.94647C 306.96704 495.6505 287.39127 507.39273 266 507.75L266 507.75L264 388L266 507.75L264 388z" stroke="none" fill="none" />
        <path d="M226.3 370.559C 226.5794 371.7345 227.16608 372.81467 228 373.689L228 373.689L227.359 373.84L206.088 380C 202.817 379.187 200.662 376.135 201.04399 372.854C 201.42598 369.573 204.22499 367.073 207.59999 367C 208.05316 367.00104 208.5052 367.04523 208.95 367.132L208.95 367.132L226.3 370.559z" stroke="none" fill="none" />
        <path d="M259 89.407C 259 89.407 258.724 68.602 241.925 70.396996C 225.126 72.19199 226.414 65.301994 219.238 66.058C 212.06201 66.814 203.72801 73.844 206.121 82.526C 208.51399 91.208 199.789 93.149 194.057 99.736C 188.32501 106.323 195.406 111.712 205.063 118.152C 214.72 124.592 204.463 122.925 210.188 133.107C 215.91301 143.28899 235.295 130.282 235.295 130.282L235.295 130.282L259 89.407z" stroke="none" fill="#503164" fill-rule="nonzero" />
        <path d="M122.664 434.601L134.394 435L134.394 341.255C 134.394 341.255 134.984 317.014 157.846 314.582C 180.708 312.15 388.042 282.116 388.042 282.116C 388.042 282.116 396.25998 281.246 400.99298 297.017C 405.72598 312.788 410.33298 374.80402 410.33298 374.80402L410.33298 374.80402L473.97296 383.381C 473.97296 383.381 475.65295 273.831 452.67096 267.786C 429.68896 261.74103 129.14896 292.54602 129.14896 292.54602C 129.14896 292.54602 106.858955 408.898 122.663956 434.601L122.663956 434.601L122.664 434.601z" stroke="none" fill="#2BD0D0" fill-rule="nonzero" />
        <path d="M122.664 434.601L134.394 435L134.394 341.255C 134.394 341.255 134.984 317.014 157.846 314.582C 180.708 312.15 388.042 282.116 388.042 282.116C 388.042 282.116 396.25998 281.246 400.99298 297.017C 405.72598 312.788 410.33298 374.80402 410.33298 374.80402L410.33298 374.80402L473.97296 383.381C 473.97296 383.381 475.65295 273.831 452.67096 267.786C 429.68896 261.74103 129.14896 292.54602 129.14896 292.54602C 129.14896 292.54602 106.858955 408.898 122.663956 434.601L122.663956 434.601L122.664 434.601z" stroke="none" fill="#2BD0D0" fill-rule="nonzero" />
        <path d="M62 303.784C 62 303.784 67.744 272.02798 108.144 263.705L108.144 263.705L393.32703 231.06198C 393.32703 231.06198 421.32303 229.90198 434.13104 237.64899C 446.93906 245.396 465.21906 251.81699 472.71405 286.87198C 480.20905 321.92697 482 381.814 482 381.814L482 381.814L474.91 382.914C 474.91 382.914 464.562 274.474 453.598 267.608C 442.63397 260.742 146.19598 302.863 146.19598 302.863C 146.19598 302.863 125.63498 306.95102 123.84399 337.39502C 122.05299 367.83902 123.84399 434.00003 123.84399 434.00003L123.84399 434.00003L62 409.057L62 303.784z" stroke="none" fill="#2BD0D0" fill-rule="nonzero" />
        <path d="M355.425 243.844C 340.663 241.944 325.78098 240.568 310.90598 241.124C 299.72598 241.55699 288.61996 243.09 277.53397 244.61699L277.53397 244.61699L179.75897 258.12C 178.09897 258.35 176.20897 258.723 175.37897 260.164C 173.78697 262.91602 177.52896 265.628 180.56097 266.676C 213.07097 277.932 247.80397 289.332 281.26898 281.306C 296.56897 277.637 310.77997 270.018 326.29898 267.371C 341.818 264.724 357.74698 267.161 373.232 264.665C 387.789 262.32 401.649 255.656 416.404 255.591C 420.929 255.591 425.587 256.168 429.879 254.752C 434.171 253.336 437.967 249.013 436.779 244.702C 422.926 244.224 407.375 241.69499 393.787 244.44C 380.33798 247.15201 368.89297 243.84401 355.425 243.84401L355.425 243.84401L355.425 243.844z" stroke="none" fill="url(#216)" />
        <path d="M267 259.38L267.57 261.49402C 267.57 261.49402 284.45102 271.66702 284.345 271.99503C 284.23898 272.32303 354.36902 255.75502 354.36902 255.75502L354.36902 255.75502L356 251L267 259.38z" stroke="none" fill="#2BD0D0" fill-rule="nonzero" />
        <path d="M267 259.38L267.57 261.49402C 267.57 261.49402 284.45102 271.66702 284.345 271.99503C 284.23898 272.32303 354.36902 255.75502 354.36902 255.75502L354.36902 255.75502L356 251L267 259.38z" stroke="none" fill="#2BD0D0" fill-rule="nonzero" />
        <path d="M268 259.364L330.107 246L356 251.054L285.442 268L268 259.364z" stroke="none" fill="#2BD0D0" fill-rule="nonzero" />
        <path d="M268 259.364L330.107 246L356 251.054L285.442 268L268 259.364z" stroke="none" fill="#2BD0D0" fill-rule="nonzero" />
        <path d="M247.832 270.484L262.289 270.996C 262.289 270.996 265.961 271.224 266.909 268.279C 267.857 265.33398 261.01898 259.119 260.287 259.00198C 259.555 258.88498 240.527 264.222 243.26999 269.55798L243.26999 269.55798L247.83199 270.48398L247.832 270.484z" stroke="none" fill="#2BD0D0" fill-rule="nonzero" />
        <path d="M247.832 270.484L262.289 270.996C 262.289 270.996 265.961 271.224 266.909 268.279C 267.857 265.33398 261.01898 259.119 260.287 259.00198C 259.555 258.88498 240.527 264.222 243.26999 269.55798L243.26999 269.55798L247.83199 270.48398L247.832 270.484z" stroke="none" fill="#2BD0D0" fill-rule="nonzero" />
        <path d="M79 416.056L71.942 437.733C 51.469 445.084 34.062 437.733 34.062 437.733L34.062 437.733L29 415C 29 415 54.535 423.56 79 416.056z" stroke="none" fill="#2BD0D0" fill-rule="nonzero" />
        <path d="M79 416.056L71.942 437.733C 51.469 445.084 34.062 437.733 34.062 437.733L34.062 437.733L29 415C 29 415 54.535 423.56 79 416.056z" stroke="none" fill="#2BD0D0" fill-rule="nonzero" />
        <path d="M87 396L84.716 412.943L78.93 415.951C 54.281998 423.371 28.515 414.913 28.515 414.913L28.515 414.913L24.071999 411.63L22 396L87 396z" stroke="none" fill="#2BD0D0" fill-rule="nonzero" />
        <path d="M87 396L84.716 412.943L78.93 415.951C 54.281998 423.371 28.515 414.913 28.515 414.913L28.515 414.913L24.071999 411.63L22 396L87 396z" stroke="none" fill="#2BD0D0" fill-rule="nonzero" />
        <path d="M22 395C 22 391.68628 36.550743 389 54.5 389C 72.44926 389 87 391.68628 87 395C 87 398.31372 72.44926 401 54.5 401C 36.550743 401 22 398.31372 22 395" stroke="none" fill="#2BD0D0" fill-rule="nonzero" />
        <path d="M22 395C 22 391.68628 36.550743 389 54.5 389C 72.44926 389 87 391.68628 87 395C 87 398.31372 72.44926 401 54.5 401C 36.550743 401 22 398.31372 22 395" stroke="none" fill="none" />
		<g>
            <path d="M39.641 265.03C 36.459 263.51498 33.038 262.372 30.285 260.16C 24.737999 255.66 23.332 247.912 21.595001 240.962C 19.858002 234.01201 16.498001 226.369 9.651001 224.375C 7.0890007 223.638 4.084001 223.93 2.136001 225.765C 0.08300114 227.698 -0.33399892 230.875 0.22800112 233.679C 0.79000115 236.483 2.156001 238.995 3.213001 241.653C 5.6804028 247.83063 6.4309063 254.5606 5.385001 261.13C 4.5200014 266.519 2.4530013 271.98102 3.7800012 277.264C 6.0320015 286.228 17.250002 291.484 17.560001 300.721C 17.772001 306.954 12.675001 312.72202 13.830002 318.85602C 14.682002 323.394 18.835003 326.936 19.060001 331.548C 19.310001 336.778 14.398001 341.203 14.636002 346.433C 14.874002 351.66302 20.063002 355.15802 23.451 359.272C 26.293226 362.73288 27.981104 366.99646 28.278 371.465C 28.456 374.25598 28.098999 377.147 29.004 379.792C 29.664 381.725 30.984 383.367 32.008 385.108C 33.138 386.988 33.989 389.022 35.349 390.763C 38.83217 395.19635 44.676228 397.04224 50.073997 395.414C 51.123997 388.464 50.205997 381.374 50.496998 374.349C 51.071 360.74 56.187996 347.025 52.913 333.814C 51.711998 328.97 49.400997 324.371 48.990997 319.401C 48.628 314.961 49.802998 310.563 50.621998 306.184C 52.311996 297.13998 52.286 287.78998 51.592 278.646C 51.045 271.38998 45.974 268.047 39.642 265.03L39.642 265.03L39.641 265.03z" stroke="none" fill="#2BD0D0" fill-rule="nonzero" />
            <path d="M59.752 300.767C 59.698997 306.829 61.082 313.097 59.14 318.852C 57.67 323.214 54.438 326.78598 52.769 331.07498C 48.919003 340.97397 54.099003 352.07498 53.042 362.645C 52.602 366.999 51.106 371.18198 50.162 375.45798C 48.9892 380.87088 48.701805 386.43814 49.310997 391.943C 49.183014 394.0165 50.60082 395.86798 52.635998 396.285C 55.894688 397.5259 59.270042 398.4355 62.711 399C 61.547672 392.59055 62.773262 385.977 66.156 380.41C 71.43 371.78 81.678 365.964 83.586 356.051C 84.876 349.339 81.871 342.527 82.084 335.69598C 82.23751 331.14917 83.80414 326.76315 86.566 323.14798C 89.046005 319.921 92.405 317.425 94.713005 314.07797C 100.259 306.01196 98.53001 295.22998 96.881004 285.58398C 95.232 275.938 94.274 264.836 100.79101 257.52698C 102.853004 255.21698 105.53901 253.48297 107.408005 251.01398C 111.57101 245.50998 110.520004 237.03098 105.678 232.11197C 100.836 227.19296 93.043 225.83197 86.46 227.99597C 83.68373 228.81197 81.23248 230.47644 79.45 232.75597C 76.125 237.46997 77.454994 243.90997 78.865 249.51297C 80.095 254.37997 81.086 259.99597 79.404 264.90298C 78.147 268.554 74.961 270.533 72.254 273.07498C 64.505356 280.2294 59.99346 290.22327 59.752 300.76697L59.752 300.76697L59.752 300.767z" stroke="none" fill="#2BD0D0" fill-rule="nonzero" />
		</g>
        <path d="M53.062 354.522C 52.124 361.115 50.77 367.76102 50.492 374.37302L50.492 374.37302L50.492 375.03802C 50.477634 375.20212 50.44027 375.36337 50.381 375.51703C 49.20926 380.93533 48.916855 386.50684 49.515 392.01804C 49.551 392.91104 49.776 393.78604 50.175 394.58405C 50.142998 394.86304 50.103 395.13504 50.064 395.41403C 44.664516 397.04257 38.818718 395.19635 35.334 390.76202C 34.014 389.02103 33.121 386.98703 31.992 385.10703C 30.935001 383.35904 29.647001 381.717 28.987 379.79004C 28.081999 377.13104 28.438 374.25403 28.26 371.46304C 27.96344 366.99335 26.275167 362.7286 23.432 359.26703C 20.043 355.18002 14.844999 351.75104 14.613999 346.43402C 14.382999 341.117 19.289999 336.778 19.039 331.54703C 18.814999 326.93503 14.66 323.39304 13.809 318.85403C 12.652 312.71902 17.771 306.95105 17.54 300.71704C 17.230001 291.47903 6.0080013 286.22205 3.755001 277.25705C 2.435001 271.97305 4.495001 266.51004 5.360001 261.12106C 6.4111156 254.55952 5.669649 247.83588 3.2140012 241.66107C 2.157001 239.00307 0.79000115 236.49808 0.22800112 233.68607C -0.33399892 230.87405 0.08300112 227.70506 2.137001 225.76407C 4.119001 223.93007 7.091001 223.63806 9.654001 224.37506C 16.510002 226.36906 19.858002 234.03906 21.602001 240.99007C 23.346 247.94107 24.746002 255.68407 30.294003 260.19006C 33.036003 262.41705 36.47 263.54605 39.654003 265.06207C 45.994003 268.07907 51.067 271.42206 51.609 278.61206C 52.269 287.75705 52.329002 297.10806 50.639 306.15308C 49.819 310.53308 48.657 314.93307 49.007 319.37207C 49.357 323.81107 51.279 328.0121 52.534 332.31808L52.534 332.31808L52.93 333.78708C 54.595 340.62607 54.06 347.54407 53.062 354.5221L53.062 354.5221L53.062 354.522z" stroke="none" fill="#30C59B" fill-rule="nonzero" />
        <path d="M49.718 394C 49.415756 393.20367 49.246174 392.3632 49.216 391.512C 48.785248 386.15677 48.999115 380.76926 49.853 375.465L49.853 375.465L49.933002 375C 49.762 381.346 50.307003 387.744 49.718002 394L49.718002 394L49.718 394z" stroke="none" fill="none" />
        <path d="M107.393 251.014C 105.521996 253.48401 102.831 255.216 100.766 257.527C 94.239 264.83002 95.198 275.937 96.85 285.584C 98.502 295.23102 100.233 306.01202 94.678 314.079C 92.368004 317.39902 89.004 319.92102 86.519 323.148C 83.75304 326.7615 82.18344 331.14798 82.029 335.696C 81.817 342.527 84.826996 349.33902 83.534996 356.05103C 81.62399 365.96402 71.35999 371.79303 66.077995 380.411C 62.70327 385.98068 61.48523 392.59344 62.654 399C 59.216614 398.43555 55.844902 397.52594 52.59 396.285C 51.700535 396.0215 50.893497 395.53433 50.246 394.87C 50.15405 394.7622 50.07142 394.6468 49.998997 394.525C 49.58629 393.73477 49.347923 392.8652 49.299995 391.975C 48.700874 386.4686 49.000107 380.90146 50.185997 375.491C 50.218998 375.331 50.259 375.172 50.298996 375.013C 51.244995 370.903 52.643997 366.873 53.069996 362.677C 53.29656 359.9567 53.24295 357.2203 52.909996 354.511C 53.915997 347.53998 54.454994 340.629 52.756996 333.843C 52.636997 333.353 52.496998 332.861 52.356995 332.37598C 52.483994 331.951 52.629993 331.52597 52.796993 331.10797C 54.468994 326.81897 57.705994 323.248 59.176994 318.88498C 61.115993 313.12897 59.736996 306.86197 59.789993 300.8C 59.876995 290.33 64.61299 280.22 72.218994 273.07498C 74.92899 270.533 78.119995 268.555 79.379 264.90298C 81.063995 259.99597 80.045 254.37999 78.839 249.51299C 77.421 243.90999 76.075 237.46999 79.425995 232.75598C 81.090996 230.41898 83.715996 228.89899 86.44599 227.99599C 93.01299 225.831 100.85299 227.19199 105.69499 232.11198C 110.536995 237.03198 111.56299 245.54199 107.39299 251.01398L107.39299 251.01398L107.393 251.014z" stroke="none" fill="#30C59B" fill-rule="nonzero" />
        <path d="M225.573 146.146C 225.573 146.146 197.756 150.446 184.889 181.123C 172.02202 211.8 178.71301 249.806 178.938 253.15C 179.163 256.494 218.366 271 229.573 271C 240.78 271 243.11499 259.771 243.11499 259.771L243.11499 259.771L223.312 251.338L283.482 244.38899L294.28598 244.38899L288.335 254.42099C 288.335 254.42099 300.078 255.65099 307.927 255.93199C 315.776 256.213 321.105 240.69199 321.984 232.97299C 322.863 225.254 287.31702 157.51498 282.00702 153.50299C 276.69702 149.491 262.29 139.68599 225.57303 146.146L225.57303 146.146L225.573 146.146z" stroke="none" fill="#2BD0D0" fill-rule="nonzero" />
        <path d="M258.392 88.776C 258.392 88.776 263.424 91.606 262.972 100.761C 262.51996 109.916 259.68198 123.693 256.81897 127.261C 253.95596 130.82901 243.93896 132.229 243.93896 132.229C 243.93896 132.229 249.40297 145.20601 253.46896 148.55501C 257.53497 151.904 249.38297 164.242 241.45396 160.194C 233.52496 156.146 224.33397 145.978 224.33397 145.978C 224.33397 145.978 230.94597 133.733 228.70998 127.287994C 226.47398 120.84299 217.93797 98.224 224.33397 92.04599C 230.72997 85.86798 244.51997 77.01099 258.39197 88.77599L258.39197 88.77599L258.392 88.776z" stroke="none" fill="url(#452)" />
        <path d="M214.334 190L210 244.055L223.238 251L234 249.122L220.572 232.618L214.334 190zM284 187C 284 187 301.909 229.077 293.97 244L293.97 244L287.854 242.84L284 187z" stroke="none" fill="#FFFFFF" fill-rule="nonzero" fill-opacity="0.24705882" />
        <path d="M235.522 258.045C 235.522 258.045 228.756 263.82 231.776 268.312C 234.796 272.80402 238.401 272.67502 241.407 270.66702C 244.413 268.65903 250.318 263.89102 257.353 266.079C 264.388 268.267 266.097 269.659 266.097 269.659C 266.097 269.659 269.80197 267.343 268.84097 265.02C 267.87997 262.697 260.52097 255.16998 258.38898 254.19499C 256.257 253.22 247.40598 256.216 247.40598 256.216C 247.40598 256.216 240.90297 254.45801 235.52197 258.046L235.52197 258.046L235.522 258.045z" stroke="none" fill="url(#684)" />
        <path d="M295.191 245.598C 295.191 245.598 288.806 246.35701 287.19302 250.55501C 285.58005 254.753 285.00003 255.26501 285.00003 255.26501C 285.00003 255.26501 288.60602 255.95502 290.10602 254.001C 291.60602 252.047 293.165 252.86801 293.165 252.86801L293.165 252.86801L292.71802 255.37502C 292.71802 255.37502 302.51602 256.85202 306.94202 255.26501C 311.368 253.67801 313.26703 251.81201 313.26703 251.81201L313.26703 251.81201L315.00003 247.572C 315.00003 247.572 310.82004 244.542 307.66803 244.072C 304.51602 243.602 295.19104 245.598 295.19104 245.598L295.19104 245.598L295.191 245.598z" stroke="none" fill="url(#921)" />
        <path d="M328.893 290C 328.893 290 350.827 306.687 348.877 329.259L348.877 329.259L344.06403 385.346C 344.06403 385.346 335.21802 389.068 329.35703 385.346C 323.49603 381.62402 319.946 330.696 317.04202 325.833C 314.13803 320.97 296.66702 299.043 278.00003 297.154L278.00003 297.154L328.893 290z" stroke="none" fill="#25233A" fill-rule="nonzero" />
        <path d="M219 306.058C 219 306.058 229.444 315.953 248.062 319.06003C 266.68 322.16705 275.359 324.76004 281.049 340.66504C 286.739 356.57004 292.19702 390.80203 293.984 394.62805C 295.771 398.45407 303.366 396.50204 303.366 396.50204C 303.366 396.50204 307.662 391.60706 307.662 364.38806C 307.662 326.44208 310.317 318.66406 300.749 309.13205C 291.181 299.60004 282.477 297 282.477 297L282.477 297L219 306.058z" stroke="none" fill="#3F3D56" fill-rule="nonzero" />
        <path d="M294 396L295.82 410.197L299.228 410.197C 299.228 410.197 321.176 411.384 321.86398 410.87198C 322.55197 410.35995 320.80698 399.62897 312.49197 399.93198C 304.17697 400.235 303.63098 397.90897 303.63098 397.90897L303.63098 397.90897L294 396zM331 386.156L334.518 400L372.95502 394.788C 372.95502 394.788 374.308 385.695 362.13202 386.597C 358.91803 386.831 356.52402 389.06198 352.661 389.08197C 348.798 389.10196 345.09802 387.53897 343.15002 384.99997L343.15002 384.99997L331 386.156z" stroke="none" fill="#25233A" fill-rule="nonzero" />
		<g>
            <path d="M461.804 212.337L319.56097 219.99101C 316.12097 220.17201 313.18497 217.52101 312.99997 214.06502L312.99997 214.06502L312.99997 112.473C 313.00296 108.372 316.26697 105.025 320.34796 104.938L320.34796 104.938L462.00897 102.00101C 462.0438 98.242775 465.1064 95.21774 468.86478 95.22934C 472.62317 95.240944 475.66705 98.28483 475.67865 102.043205C 475.69025 105.80158 472.66522 108.864204 468.90698 108.89901L468.90698 108.89901L320.34796 104.938L462.00897 102.00101L468.90698 108.89901L468.90698 204.87001C 468.90198 208.92601 465.74298 212.272 461.71097 212.49101L461.71097 212.49101L461.804 212.337z" stroke="none" fill="#2BD0D0" fill-rule="nonzero" />
            <path d="M469.804 212.337L327.554 219.992C 324.11398 220.169 321.18198 217.514 321 214.058L321 214.058L321 112.473C 320.996 108.371 324.26 105.020996 328.342 104.938L328.342 104.938L470.022 102.00101C 473.799 101.93101 476.92 104.94401 477 108.739006L477 108.739006L477 204.716C 476.995 208.77301 473.836 212.119 469.804 212.337z" stroke="none" fill="#2BD0D0" fill-rule="nonzero" />
		</g>
        <path d="M469.804 212.337L327.554 219.992C 324.11398 220.169 321.18198 217.514 321 214.058L321 214.058L321 112.473C 320.996 108.371 324.26 105.020996 328.342 104.938L328.342 104.938L470.022 102.00101C 473.799 101.93101 476.92 104.94401 477 108.739006L477 108.739006L477 204.716C 476.995 208.77301 473.836 212.119 469.804 212.337z" stroke="none" fill="url(#1158)" />
        <path d="M427.773 251.138L391.478 255C 391.478 255 380.425 252.77 381.023 251.138C 381.62103 249.506 393.17902 247.933 393.17902 247.933L393.17902 247.933L393.17902 182.129C 393.079 181.983 391.558 180.045 387.39 178.81C 386.5826 178.57056 385.76144 178.3802 384.931 178.23999C 384.21713 178.13562 383.52283 177.92531 382.871 177.616C 380.392 176.336 383.131 174.106 386.978 174.006C 387.58066 173.9848 388.184 174.0203 388.78 174.112L388.78 174.112L416.693 174.112C 416.693 174.112 427.261 177.085 427.77298 191.923C 428.28497 206.761 427.77298 251.138 427.77298 251.138L427.77298 251.138L427.773 251.138z" stroke="none" fill="#3A3054" fill-rule="nonzero" />
        <path d="M398 251.277L391.322 255C 391.322 255 380.434 252.77 381.02298 251.137C 381.61197 249.50398 393.01797 247.93199 393.01797 247.93199L393.01797 247.93199L393.01797 182.12299C 392.87997 181.971 391.21097 180.22499 387.31497 178.805C 385.8655 178.28769 384.37668 177.88805 382.86298 177.60999C 380.421 176.32999 383.11798 174.09999 386.90897 173.99998C 390.13696 174.44499 396.49396 178.02798 396.90695 180.07298C 397.31995 182.11798 398 251.277 398 251.277z" stroke="none" fill="#51466B" fill-rule="nonzero" />
        <path d="M263 389C 262.119 390.001 261.71 390.37 262.23 389.547C 262.5 389.388 262.75702 389.205 263 389z" stroke="none" fill="none" />
	</g>
</g>
</svg>